<?xml version="1.0" encoding="utf-8"?>
<!-- Generator: Adobe Illustrator 16.0.0, SVG Export Plug-In . SVG Version: 6.00 Build 0)  -->
<!DOCTYPE svg PUBLIC "-//W3C//DTD SVG 1.1//EN" "http://www.w3.org/Graphics/SVG/1.1/DTD/svg11.dtd">
<svg version="1.1" id="Mag_x5F_Glass" xmlns="http://www.w3.org/2000/svg" xmlns:xlink="http://www.w3.org/1999/xlink" x="0px"
	 y="0px" width="35px" height="35px" viewBox="0 0 35 35" enable-background="new 0 0 35 35" xml:space="preserve">
<path fill="#FFFFFF" d="M15.083,6.917c4.411,0,8,3.589,8,8s-3.589,8-8,8s-8-3.589-8-8S10.672,6.917,15.083,6.917 M15.083,5.917
	c-4.971,0-9,4.029-9,9s4.029,9,9,9s9-4.029,9-9S20.054,5.917,15.083,5.917L15.083,5.917z"/>
<path fill="#FFFFFF" d="M29.25,29.584c-0.128,0-0.257-0.049-0.354-0.147l-7.79-7.817c-0.194-0.195-0.194-0.512,0.002-0.707
	c0.195-0.193,0.512-0.195,0.707,0.002l7.79,7.817c0.194,0.195,0.194,0.512-0.002,0.707C29.505,29.535,29.378,29.584,29.25,29.584z"
	/>
</svg>
