<?xml version="1.0" encoding="utf-8"?>
<!-- Generator: Adobe Illustrator 16.0.0, SVG Export Plug-In . SVG Version: 6.00 Build 0)  -->
<!DOCTYPE svg PUBLIC "-//W3C//DTD SVG 1.1//EN" "http://www.w3.org/Graphics/SVG/1.1/DTD/svg11.dtd">
<svg version="1.1" id="Mag" xmlns="http://www.w3.org/2000/svg" xmlns:xlink="http://www.w3.org/1999/xlink" x="0px" y="0px"
	 width="20px" height="20px" viewBox="0 0 20 20" enable-background="new 0 0 20 20" xml:space="preserve">
<path id="Rim_1_" d="M8,2c3.309,0,6,2.691,6,6s-2.691,6-6,6s-6-2.691-6-6S4.691,2,8,2 M8,1C4.134,1,1,4.134,1,8s3.134,7,7,7
	s7-3.134,7-7S11.866,1,8,1L8,1z"/>
<path d="M18.578,19.297c-0.128,0-0.256-0.049-0.354-0.146l-5.74-5.74c-0.195-0.195-0.195-0.512,0-0.707s0.512-0.195,0.707,0
	l5.74,5.74c0.195,0.195,0.195,0.512,0,0.707C18.834,19.248,18.706,19.297,18.578,19.297z"/>
</svg>
